<svg width="108" height="113" viewBox="0 0 108 113" fill="none" xmlns="http://www.w3.org/2000/svg">
<path d="M50 0C77 4.00841e-06 108 18.5 108 48.5C108 74.2279 92.5551 87.0851 79.3259 90.8559C75.9772 91.8104 73 89.0382 73 85.5561V80C73 79.4477 72.5523 79 72 79H70C69.4477 79 69 79.4477 69 80V95C69 97 68.7 101.2 67.5 104C66 107.5 62 111.188 55 112.5C47.0758 113.986 39 110.5 39 104C39 97 46.1068 92.5786 51.5 91.5C55.5931 90.6814 59.6863 91.203 62.4079 92.2421C63.1341 92.5194 64 92.0111 64 91.2338V49.0015C64 48.4486 64.4491 48.0021 65.0019 47.9936C68.8188 47.9354 72.0855 47.4537 75.2533 45.3428C75.9683 44.8664 77 45.3446 77 46.2038V79.942C77 81.3843 78.4808 82.361 79.7835 81.7418C87.6905 77.9837 98 70.987 98 50.5C98 28.5 77 15 50 15H16C15.4477 15 15 15.4477 15 16V84C15 85.6569 13.6569 87 12 87H3C1.34315 87 0 85.6569 0 84V3C0 1.34315 1.34315 0 3 0H50Z" fill="white"/>
<rect x="22" y="47" width="15" height="40" rx="3" fill="white"/>
<rect x="43" y="27" width="15" height="60" rx="3" fill="#EDAE54"/>
</svg>
